<svg xmlns="http://www.w3.org/2000/svg" xmlns:xlink="http://www.w3.org/1999/xlink" width="500" zoomAndPan="magnify" viewBox="0 0 375 374.999991" height="500" preserveAspectRatio="xMidYMid meet" version="1.0"><path fill="#ffde59" d="M 369.949219 206.226562 C 369.949219 208.984375 369.882812 211.742188 369.746094 214.5 C 369.609375 217.257812 369.40625 220.007812 369.136719 222.753906 C 368.867188 225.5 368.527344 228.238281 368.125 230.96875 C 367.71875 233.699219 367.246094 236.417969 366.710938 239.121094 C 366.171875 241.828125 365.566406 244.519531 364.894531 247.199219 C 364.226562 249.875 363.488281 252.535156 362.6875 255.175781 C 361.886719 257.816406 361.023438 260.433594 360.09375 263.035156 C 359.164062 265.632812 358.167969 268.207031 357.113281 270.753906 C 356.058594 273.304688 354.941406 275.828125 353.757812 278.320312 C 352.578125 280.816406 351.339844 283.28125 350.039062 285.714844 C 348.738281 288.148438 347.378906 290.546875 345.960938 292.914062 C 344.539062 295.28125 343.0625 297.613281 341.53125 299.90625 C 340 302.203125 338.410156 304.457031 336.765625 306.675781 C 335.121094 308.890625 333.425781 311.066406 331.675781 313.199219 C 329.921875 315.332031 328.121094 317.421875 326.269531 319.464844 C 324.414062 321.511719 322.511719 323.507812 320.5625 325.460938 C 318.609375 327.410156 316.613281 329.3125 314.566406 331.167969 C 312.523438 333.019531 310.433594 334.820312 308.300781 336.574219 C 306.167969 338.324219 303.992188 340.019531 301.773438 341.664062 C 299.558594 343.308594 297.304688 344.898438 295.007812 346.429688 C 292.714844 347.964844 290.382812 349.4375 288.015625 350.859375 C 285.648438 352.277344 283.25 353.636719 280.816406 354.9375 C 278.382812 356.238281 275.917969 357.480469 273.421875 358.660156 C 270.929688 359.839844 268.40625 360.957031 265.855469 362.011719 C 263.304688 363.070312 260.734375 364.0625 258.132812 364.992188 C 255.535156 365.921875 252.917969 366.785156 250.277344 367.585938 C 247.636719 368.386719 244.976562 369.125 242.300781 369.792969 C 239.621094 370.464844 236.929688 371.070312 234.222656 371.609375 C 231.515625 372.148438 228.800781 372.617188 226.070312 373.023438 C 223.339844 373.429688 220.601562 373.765625 217.855469 374.035156 C 215.109375 374.308594 212.359375 374.507812 209.601562 374.644531 C 206.84375 374.78125 204.085938 374.847656 201.328125 374.847656 C 198.566406 374.847656 195.808594 374.78125 193.054688 374.644531 C 190.296875 374.507812 187.546875 374.308594 184.800781 374.035156 C 182.054688 373.765625 179.316406 373.429688 176.585938 373.023438 C 173.855469 372.617188 171.136719 372.148438 168.429688 371.609375 C 165.722656 371.070312 163.03125 370.464844 160.355469 369.792969 C 157.679688 369.125 155.019531 368.386719 152.378906 367.585938 C 149.738281 366.785156 147.117188 365.921875 144.519531 364.992188 C 141.921875 364.0625 139.347656 363.070312 136.796875 362.011719 C 134.25 360.957031 131.726562 359.839844 129.230469 358.660156 C 126.738281 357.480469 124.273438 356.238281 121.839844 354.9375 C 119.40625 353.636719 117.003906 352.277344 114.636719 350.859375 C 112.269531 349.4375 109.941406 347.964844 107.644531 346.429688 C 105.351562 344.898438 103.097656 343.308594 100.878906 341.664062 C 98.664062 340.019531 96.488281 338.324219 94.355469 336.574219 C 92.222656 334.820312 90.132812 333.019531 88.085938 331.167969 C 86.042969 329.3125 84.046875 327.410156 82.09375 325.460938 C 80.140625 323.507812 78.238281 321.511719 76.386719 319.464844 C 74.535156 317.421875 72.730469 315.332031 70.980469 313.199219 C 69.230469 311.066406 67.53125 308.890625 65.890625 306.675781 C 64.246094 304.457031 62.65625 302.203125 61.125 299.90625 C 59.589844 297.613281 58.113281 295.28125 56.695312 292.914062 C 55.277344 290.546875 53.917969 288.148438 52.617188 285.714844 C 51.316406 283.28125 50.074219 280.816406 48.894531 278.320312 C 47.714844 275.828125 46.597656 273.304688 45.542969 270.753906 C 44.484375 268.207031 43.492188 265.632812 42.5625 263.035156 C 41.632812 260.433594 40.765625 257.816406 39.964844 255.175781 C 39.164062 252.535156 38.429688 249.875 37.757812 247.199219 C 37.089844 244.519531 36.484375 241.828125 35.945312 239.121094 C 35.40625 236.417969 34.9375 233.699219 34.53125 230.96875 C 34.125 228.238281 33.789062 225.5 33.515625 222.753906 C 33.246094 220.007812 33.042969 217.257812 32.910156 214.5 C 32.773438 211.742188 32.707031 208.984375 32.707031 206.226562 C 32.707031 203.464844 32.773438 200.707031 32.910156 197.953125 C 33.042969 195.195312 33.246094 192.445312 33.515625 189.699219 C 33.789062 186.953125 34.125 184.214844 34.53125 181.484375 C 34.9375 178.753906 35.40625 176.035156 35.945312 173.328125 C 36.484375 170.625 37.089844 167.929688 37.757812 165.253906 C 38.429688 162.578125 39.164062 159.917969 39.964844 157.277344 C 40.765625 154.636719 41.632812 152.019531 42.5625 149.417969 C 43.492188 146.820312 44.484375 144.246094 45.542969 141.699219 C 46.597656 139.148438 47.714844 136.625 48.894531 134.132812 C 50.074219 131.636719 51.316406 129.171875 52.617188 126.738281 C 53.917969 124.304688 55.277344 121.90625 56.695312 119.539062 C 58.113281 117.171875 59.589844 114.839844 61.125 112.546875 C 62.65625 110.25 64.246094 107.996094 65.890625 105.777344 C 67.53125 103.5625 69.230469 101.386719 70.980469 99.253906 C 72.730469 97.121094 74.535156 95.03125 76.386719 92.988281 C 78.238281 90.941406 80.140625 88.945312 82.09375 86.992188 C 84.046875 85.042969 86.042969 83.140625 88.085938 81.285156 C 90.132812 79.433594 92.222656 77.628906 94.355469 75.878906 C 96.488281 74.128906 98.664062 72.433594 100.878906 70.789062 C 103.097656 69.144531 105.351562 67.554688 107.644531 66.023438 C 109.941406 64.488281 112.269531 63.011719 114.636719 61.59375 C 117.003906 60.175781 119.40625 58.816406 121.839844 57.515625 C 124.273438 56.214844 126.738281 54.972656 129.230469 53.792969 C 131.726562 52.613281 134.25 51.496094 136.796875 50.441406 C 139.347656 49.382812 141.921875 48.390625 144.519531 47.460938 C 147.117188 46.53125 149.738281 45.667969 152.378906 44.867188 C 155.019531 44.0625 157.679688 43.328125 160.355469 42.65625 C 163.03125 41.988281 165.722656 41.382812 168.429688 40.84375 C 171.136719 40.304688 173.855469 39.835938 176.585938 39.429688 C 179.316406 39.023438 182.054688 38.6875 184.800781 38.417969 C 187.546875 38.144531 190.296875 37.941406 193.054688 37.808594 C 195.808594 37.671875 198.566406 37.605469 201.328125 37.605469 C 204.085938 37.605469 206.84375 37.671875 209.601562 37.808594 C 212.359375 37.941406 215.109375 38.144531 217.855469 38.417969 C 220.601562 38.6875 223.339844 39.023438 226.070312 39.429688 C 228.800781 39.835938 231.515625 40.304688 234.222656 40.84375 C 236.929688 41.382812 239.621094 41.988281 242.300781 42.65625 C 244.976562 43.328125 247.636719 44.0625 250.277344 44.867188 C 252.917969 45.667969 255.535156 46.53125 258.132812 47.460938 C 260.734375 48.390625 263.304688 49.382812 265.855469 50.441406 C 268.40625 51.496094 270.929688 52.613281 273.421875 53.792969 C 275.917969 54.972656 278.382812 56.214844 280.816406 57.515625 C 283.25 58.816406 285.648438 60.175781 288.015625 61.59375 C 290.382812 63.011719 292.714844 64.488281 295.007812 66.023438 C 297.304688 67.554688 299.558594 69.144531 301.773438 70.789062 C 303.992188 72.433594 306.167969 74.128906 308.300781 75.878906 C 310.433594 77.628906 312.523438 79.433594 314.566406 81.285156 C 316.613281 83.140625 318.609375 85.042969 320.5625 86.992188 C 322.511719 88.945312 324.414062 90.941406 326.269531 92.988281 C 328.121094 95.03125 329.921875 97.121094 331.675781 99.253906 C 333.425781 101.386719 335.121094 103.5625 336.765625 105.777344 C 338.410156 107.996094 340 110.25 341.53125 112.546875 C 343.066406 114.839844 344.539062 117.171875 345.960938 119.539062 C 347.378906 121.90625 348.738281 124.304688 350.039062 126.738281 C 351.339844 129.171875 352.578125 131.636719 353.757812 134.132812 C 354.941406 136.625 356.058594 139.148438 357.113281 141.699219 C 358.167969 144.246094 359.164062 146.820312 360.09375 149.417969 C 361.023438 152.019531 361.886719 154.636719 362.6875 157.277344 C 363.488281 159.917969 364.226562 162.578125 364.894531 165.253906 C 365.566406 167.929688 366.171875 170.625 366.710938 173.328125 C 367.246094 176.035156 367.71875 178.753906 368.125 181.484375 C 368.527344 184.214844 368.867188 186.953125 369.136719 189.699219 C 369.40625 192.445312 369.609375 195.195312 369.746094 197.953125 C 369.882812 200.707031 369.949219 203.464844 369.949219 206.226562 Z M 369.949219 206.226562 " fill-opacity="1" fill-rule="nonzero"/><path fill="#d24a00" d="M 69.191406 293.332031 C 69.191406 293.332031 59.890625 233.214844 77.136719 198.011719 C 77.136719 198.011719 107.015625 134.222656 133.113281 116.234375 C 159.214844 98.21875 183.382812 83.679688 208.132812 81.222656 C 232.878906 78.769531 247.777344 86.6875 247.777344 86.6875 C 247.777344 86.6875 254.867188 97.28125 283.3125 104.398438 L 300.667969 117.421875 C 300.667969 117.421875 312.089844 121.808594 311.867188 130.195312 C 311.648438 138.554688 309.550781 162.890625 335.070312 155.910156 C 335.070312 155.910156 321.550781 154.472656 324.171875 138.746094 C 326.792969 123.023438 321.828125 117.53125 321.828125 117.53125 C 321.828125 117.53125 333.800781 122.386719 335.980469 128.59375 L 332.753906 116.703125 C 332.753906 116.703125 345.277344 124.320312 349.96875 126.941406 C 349.96875 126.941406 342.683594 114.550781 343.042969 103.238281 C 343.402344 91.929688 335.234375 80.976562 328.863281 78.492188 C 328.863281 78.492188 332.230469 59.785156 327.289062 45.355469 C 327.289062 45.355469 323.457031 64.476562 310.460938 71.320312 C 310.460938 71.320312 309.882812 58.988281 300.886719 46.679688 C 291.894531 34.375 295.257812 30.570312 295.257812 30.570312 C 295.257812 30.570312 288.25 43.289062 289.078125 62.601562 C 289.933594 81.914062 286.457031 75.429688 286.457031 75.429688 C 286.457031 75.429688 285.464844 53.9375 273.324219 39.480469 C 261.15625 24.996094 252.414062 20.527344 252.414062 20.527344 C 252.414062 20.527344 241.347656 39.644531 240.878906 48.75 C 240.410156 57.855469 235.941406 33.550781 223.527344 28.722656 C 211.136719 23.890625 179.6875 35.011719 178.308594 25.742188 C 178.308594 25.742188 180.292969 33.300781 184.902344 37.109375 C 184.902344 37.109375 168.648438 33.769531 151.074219 37.9375 C 133.5 42.101562 117.664062 46.40625 109.609375 43.011719 C 109.609375 43.011719 129.308594 52.007812 139.183594 53.304688 C 139.183594 53.304688 122.90625 63.375 113.277344 64.613281 C 103.648438 65.855469 83.648438 67.261719 83.648438 67.261719 C 83.648438 67.261719 110.132812 86.574219 119.707031 87.347656 C 119.707031 87.347656 104.035156 95.707031 83.066406 99.378906 C 62.097656 103.019531 39.007812 114.855469 30.039062 133.699219 C 30.039062 133.699219 48.332031 126.46875 61.464844 129.476562 C 74.597656 132.484375 81.46875 130.71875 81.46875 130.71875 C 81.46875 130.71875 63.753906 134.304688 47.863281 146.96875 C 31.972656 159.632812 24.300781 169.839844 19.75 171.496094 C 15.199219 173.152344 41.710938 165.097656 41.710938 165.097656 C 41.710938 165.097656 38.34375 163.082031 27.144531 183.746094 C 15.941406 204.410156 17.15625 208.464844 17.15625 208.464844 L 35.503906 193.375 C 35.503906 193.375 27.089844 205.265625 26.121094 222.703125 C 25.15625 240.140625 22.261719 256.363281 22.261719 256.363281 L 38.8125 241.65625 L 40.136719 262.902344 C 40.136719 262.875 54.265625 284.308594 69.191406 293.332031 Z M 69.191406 293.332031 " fill-opacity="1" fill-rule="evenodd"/><path fill="#ffd96d" d="M 293.328125 47.371094 C 301.136719 57.136719 305.523438 69.609375 305.578125 82.132812 C 312.722656 78.1875 320.28125 70.851562 325.332031 64.449219 C 325.027344 70.269531 320.226562 77.332031 317.246094 82.300781 C 320.585938 82.6875 323.980469 83.101562 327.125 84.285156 C 330.269531 85.472656 333.222656 87.542969 334.765625 90.519531 C 336.753906 94.328125 336.203125 98.910156 336.503906 103.183594 C 337.03125 110.71875 340.503906 118.027344 346.023438 123.1875 C 349.167969 113.75 349.777344 103.460938 347.734375 93.722656 C 346.824219 89.363281 345.03125 84.644531 341.003906 82.714844 C 338.628906 81.582031 335.925781 81.636719 333.332031 81.195312 C 330.738281 80.753906 327.980469 79.539062 327.070312 77.085938 C 326.40625 75.292969 326.929688 73.304688 327.429688 71.457031 C 328.558594 67.457031 329.664062 63.457031 330.792969 59.457031 C 331.316406 57.550781 331.871094 55.511719 331.347656 53.578125 C 330.820312 51.648438 328.808594 49.992188 326.902344 50.597656 C 325.441406 51.066406 324.640625 52.585938 324.007812 53.964844 C 322.515625 57.164062 321.027344 60.339844 319.539062 63.539062 C 318.738281 65.25 317.910156 67.015625 316.53125 68.285156 C 315.152344 69.554688 313.054688 70.269531 311.34375 69.5 C 309.496094 68.671875 308.695312 66.546875 308.003906 64.640625 C 304.667969 55.566406 299.589844 47.152344 293.132812 39.949219 C 292.554688 39.289062 291.867188 38.597656 290.980469 38.570312 C 289.273438 38.488281 288.527344 40.722656 288.390625 42.433594 C 288.195312 45.109375 288.195312 47.8125 288.390625 50.515625 C 288.554688 52.863281 288.390625 56.945312 289.546875 59.015625 C 290.871094 61.359375 291.09375 56.335938 291.203125 55.425781 C 291.480469 52.667969 292.222656 49.9375 293.328125 47.371094 Z M 293.328125 47.371094 " fill-opacity="1" fill-rule="evenodd"/><path fill="#da7a07" d="M 335.675781 262.074219 C 334.546875 273.054688 322.875 276.585938 318.929688 286.378906 C 318.902344 286.460938 318.875 286.546875 318.820312 286.628906 C 317.496094 289.992188 316.832031 293.71875 314.738281 296.585938 C 310.847656 301.941406 303.121094 297.554688 303.121094 297.554688 C 304.335938 301.113281 298.265625 303.511719 294.929688 303.402344 C 291.203125 303.292969 284.359375 293.582031 282.292969 295.015625 C 281.628906 295.484375 281.132812 295.816406 280.746094 296.089844 C 278.675781 297.527344 279.589844 296.890625 273.464844 300.726562 C 265.710938 305.582031 260.992188 305.113281 257.792969 301.554688 C 254.703125 298.105469 253.15625 291.152344 248.992188 286.105469 C 244.605469 280.777344 238.011719 278.269531 235.96875 270.019531 C 230.753906 248.996094 219.167969 233.050781 211.964844 226.867188 C 206.640625 222.289062 201.785156 246.097656 201.289062 248.304688 C 197.894531 262.984375 228.269531 291.871094 252.742188 312.175781 C 268.304688 325.085938 281.464844 334.523438 282.152344 334.660156 C 282.152344 334.660156 290.265625 349.449219 288.859375 350.304688 C 263.335938 365.863281 233.347656 374.832031 201.261719 374.832031 C 181.839844 374.832031 163.1875 371.546875 145.832031 365.507812 C 145.503906 365.394531 145.144531 365.257812 144.8125 365.148438 C 131.570312 360.429688 119.097656 354.113281 107.59375 346.414062 C 101.441406 342.304688 95.59375 337.777344 90.046875 332.921875 C 85.714844 329.117188 81.550781 325.085938 77.632812 320.839844 C 68.363281 310.851562 69.660156 301.003906 68.28125 289.082031 C 67.203125 279.8125 66.320312 270.847656 66.15625 261.6875 C 66.042969 255.671875 66.238281 249.546875 66.898438 243.230469 C 67.808594 234.34375 69.605469 225.046875 72.722656 214.949219 C 74.875 207.941406 76.886719 201.707031 78.875 195.96875 C 79.039062 195.527344 79.175781 195.085938 79.34375 194.644531 C 85.550781 177.125 91.867188 164.15625 103.042969 147.796875 C 112.503906 133.917969 122.328125 123.90625 131.957031 116.234375 C 141.53125 108.59375 150.855469 103.324219 159.324219 98.964844 C 161.835938 97.667969 164.234375 96.453125 166.582031 95.292969 C 188.046875 84.535156 192.761719 77.5 226.863281 82.050781 C 232.519531 82.796875 239.996094 83.679688 248.21875 85.363281 C 251.832031 86.105469 241.984375 72.835938 241.347656 55.484375 C 240.660156 36.75 249.183594 13.878906 253.296875 15.644531 C 254.425781 16.140625 260.46875 21.492188 266.539062 28.996094 C 271.3125 34.902344 276.140625 42.15625 278.648438 49.441406 C 286.707031 72.726562 283.339844 98.496094 285.988281 100.316406 C 286.210938 100.453125 286.429688 100.617188 286.652344 100.785156 C 304.859375 113.640625 318.738281 136.015625 315.949219 175.992188 C 315.621094 180.574219 310.351562 178.585938 309.855469 183.828125 C 308.613281 196.851562 312.832031 212.191406 315.839844 228 C 316.226562 230.070312 316.640625 232.828125 317.386719 235.640625 C 318.128906 238.484375 319.261719 241.382812 321.109375 243.644531 C 327.015625 250.789062 336.367188 255.535156 335.675781 262.074219 Z M 335.675781 262.074219 " fill-opacity="1" fill-rule="evenodd"/><path fill="#ffd96d" d="M 286.679688 100.785156 L 285.878906 106.828125 C 285.878906 106.828125 282.457031 102.246094 279.203125 95.597656 C 277.546875 92.175781 276.882812 88.371094 277.269531 84.589844 C 280.773438 50.460938 262.785156 32.058594 262.785156 32.058594 L 266.59375 28.996094 C 271.367188 34.902344 276.195312 42.15625 278.703125 49.441406 C 286.761719 72.726562 283.394531 98.496094 286.042969 100.316406 C 286.238281 100.480469 286.457031 100.617188 286.679688 100.785156 Z M 286.679688 100.785156 " fill-opacity="1" fill-rule="evenodd"/><path fill="#ffd96d" d="M 319.757812 242.265625 C 312.777344 224.6875 308.886719 205.570312 308.003906 186.617188 C 307.949219 185.816406 307.921875 175.25 307.675781 176.546875 C 303.230469 200.632812 305.109375 215.226562 319.125 241.765625 Z M 319.757812 242.265625 " fill-opacity="1" fill-rule="evenodd"/><path fill="#ffd96d" d="M 253.570312 113.394531 C 253.570312 113.394531 282.320312 106.550781 289.90625 138.527344 C 294.128906 167.964844 291.3125 170.007812 296.664062 176.078125 C 301.878906 178.035156 302.128906 175.441406 302.128906 175.441406 L 298.707031 182.558594 C 298.707031 182.558594 292.941406 181.070312 292.859375 180.878906 C 292.777344 180.65625 285.851562 164.957031 285.851562 164.957031 L 281.933594 138.96875 L 272.25 119.820312 Z M 253.570312 113.394531 " fill-opacity="1" fill-rule="evenodd"/><path fill="#ffd96d" d="M 335.675781 262.074219 C 334.90625 269.714844 328.339844 274.324219 323.484375 279.511719 C 321.910156 281.21875 321.441406 283.59375 319.8125 285.25 C 316.945312 288.035156 312.445312 283.316406 309.355469 285.027344 C 331.816406 272.390625 334.851562 260.859375 320.972656 245.023438 C 325.691406 248.664062 336.257812 255.367188 335.675781 262.074219 Z M 335.675781 262.074219 " fill-opacity="1" fill-rule="evenodd"/><path fill="#571500" d="M 264.359375 125.0625 C 265.132812 125.863281 265.875 126.664062 266.59375 127.519531 C 259.335938 124.925781 251.417969 124.097656 243.777344 125.144531 C 248.4375 127.683594 252.6875 130.914062 256.6875 134.417969 C 259.945312 137.285156 260.882812 139.660156 260.910156 141.425781 C 260.964844 143.023438 258.949219 143.769531 257.957031 142.5 C 256.496094 140.625 254.589844 138.140625 253.984375 137.121094 C 251.804688 142.527344 250.976562 148.460938 251.445312 154.253906 C 251.695312 157.289062 252.414062 160.210938 253.101562 163.164062 C 253.460938 164.710938 253.929688 166.199219 254.507812 167.660156 C 254.757812 168.324219 255.667969 171.277344 256.328125 171.496094 C 251.003906 169.675781 246.066406 166.695312 241.984375 162.804688 C 243.167969 165.289062 244.550781 167.6875 246.121094 169.980469 C 248.191406 172.957031 250.5625 175.746094 253.210938 178.230469 C 256.082031 180.90625 259.007812 182.699219 262.648438 184.132812 C 268.414062 186.449219 274.757812 187.855469 280.996094 187.886719 C 283.78125 187.886719 286.871094 187.472656 288.609375 185.320312 C 290.292969 186.644531 292.609375 187.167969 294.707031 186.699219 C 296.804688 186.203125 298.652344 184.738281 299.617188 182.808594 C 297.519531 184.90625 293.960938 185.097656 291.367188 183.691406 C 288.746094 182.285156 287.035156 179.582031 286.238281 176.710938 C 285.464844 173.925781 285.90625 171.277344 285.65625 168.460938 C 285.492188 166.695312 285.160156 164.902344 284.996094 163.109375 C 284.664062 159.550781 284.304688 155.964844 283.835938 152.433594 C 282.953125 145.8125 281.710938 139.105469 279.117188 132.925781 C 276.773438 127.351562 273.242188 122.304688 268.25 118.800781 C 265.542969 116.898438 262.511719 115.488281 259.363281 114.523438 C 257.515625 113.972656 255.640625 113.53125 253.738281 113.226562 C 252.082031 112.953125 248.992188 113.335938 247.554688 112.621094 C 253.792969 115.765625 259.503906 120.015625 264.359375 125.0625 Z M 264.359375 125.0625 " fill-opacity="0.502" fill-rule="nonzero"/><path fill="#571500" d="M 279.863281 286.433594 L 259.695312 273.441406 C 259.695312 273.441406 252.191406 259.8125 250.039062 252.167969 C 247.914062 244.527344 241.046875 231.171875 241.046875 231.171875 C 241.046875 231.171875 236.050781 228.746094 240.960938 220.109375 C 245.875 211.472656 245.320312 209.625 245.320312 209.625 C 245.320312 209.625 269.929688 219.722656 272.636719 226.398438 C 275.339844 233.105469 276.746094 257.960938 276.222656 264.777344 C 275.699219 271.589844 279.863281 286.433594 279.863281 286.433594 Z M 279.863281 286.433594 " fill-opacity="1" fill-rule="evenodd"/><path fill="#ffd96d" d="M 275.917969 281.359375 L 260.578125 269.496094 C 260.578125 269.496094 254.371094 262.460938 253.019531 254.652344 C 250.34375 239.144531 245.375 230.152344 245.375 230.152344 L 248.109375 225.1875 L 250.148438 228.386719 L 249.652344 235.007812 L 255.667969 242.265625 L 254.5625 252.777344 L 258.757812 257.105469 L 260.332031 263.257812 L 261.847656 263.285156 L 263.667969 255.175781 L 258.980469 250.898438 L 261.351562 241.601562 L 255.171875 233.933594 L 256.386719 225.460938 L 248.660156 216.082031 C 248.660156 216.082031 263.144531 224.054688 265.847656 230.730469 C 268.550781 237.4375 268.664062 254.652344 269.902344 261.382812 C 271.257812 268.859375 275.917969 281.359375 275.917969 281.359375 Z M 275.917969 281.359375 " fill-opacity="1" fill-rule="evenodd"/><path fill="#ffd96d" d="M 127.429688 91.570312 C 127.429688 91.570312 105.496094 104.921875 80.804688 108.097656 C 75.398438 108.785156 70.570312 110 66.347656 111.460938 C 51.285156 116.703125 53.324219 116.925781 53.324219 116.925781 C 54.59375 116.539062 61.714844 114.359375 73.382812 117.035156 C 73.382812 117.035156 61.355469 115.628906 49.601562 119.820312 C 37.601562 124.097656 33.269531 132.59375 31.917969 133.644531 C 31.917969 133.644531 38.34375 114.332031 55.230469 108.730469 C 72.085938 103.128906 115.292969 98.6875 127.429688 91.570312 Z M 127.429688 91.570312 " fill-opacity="1" fill-rule="evenodd"/><path fill="#ffd96d" d="M 174.472656 65.910156 C 174.472656 65.910156 144.894531 62.601562 130.6875 65.441406 C 116.476562 68.285156 87.566406 67.289062 87.566406 67.289062 C 87.566406 67.289062 83.921875 69.828125 97.359375 75.953125 C 110.765625 82.078125 117.363281 84.011719 117.363281 84.011719 C 117.363281 84.011719 107.761719 77.304688 101.855469 74.160156 C 101.855469 74.160156 112.476562 75.652344 124.753906 74.851562 C 128.949219 74.574219 133.335938 74.050781 137.558594 73.085938 C 154.136719 69.359375 169.035156 65.523438 174.472656 65.910156 Z M 174.472656 65.910156 " fill-opacity="1" fill-rule="evenodd"/><path fill="#ffd96d" d="M 204.515625 53.164062 C 204.515625 53.164062 189.039062 39.011719 179.410156 37.9375 C 169.78125 36.859375 144.34375 37.742188 127.929688 46.570312 L 135.292969 51.785156 C 135.292969 51.785156 154.691406 48.476562 157.0625 48.503906 C 157.0625 48.503906 145.007812 45.742188 139.875 45.992188 C 139.875 45.992188 168.734375 37.191406 181.726562 42.984375 C 194.695312 48.75 199.441406 53.054688 204.515625 53.164062 Z M 204.515625 53.164062 " fill-opacity="1" fill-rule="evenodd"/><path fill="#ffd96d" d="M 81.246094 137.09375 C 81.246094 137.09375 70.074219 140.953125 55.699219 145.921875 C 41.324219 150.886719 34.34375 158.972656 31.199219 165.8125 L 40.800781 165.234375 L 55.0625 161.039062 C 55.0625 161.039062 45.464844 158.226562 40.910156 160.15625 C 40.910156 160.15625 43.144531 154.171875 54.898438 150.613281 C 66.652344 147.023438 81.246094 137.09375 81.246094 137.09375 Z M 81.246094 137.09375 " fill-opacity="1" fill-rule="evenodd"/><path fill="#ffd96d" d="M 39.339844 171.523438 C 38.839844 172.046875 38.34375 172.601562 37.902344 173.097656 C 32.578125 178.917969 29.875 184.296875 26.121094 191.222656 C 24.605469 194.039062 23.640625 196.988281 22.839844 200.078125 C 22.507812 201.320312 22.289062 202.589844 21.902344 203.804688 C 21.847656 203.996094 21.378906 205.679688 21.570312 205.570312 C 21.761719 205.433594 21.929688 204.769531 22.011719 204.605469 C 22.839844 203.03125 23.96875 201.542969 24.992188 200.078125 C 27.363281 196.628906 30.289062 193.816406 33.269531 190.890625 C 35.53125 188.683594 38.234375 187.386719 40.746094 185.566406 C 41.046875 185.347656 42.371094 182.585938 42.371094 182.585938 C 39.308594 183.195312 32.332031 187.195312 30.179688 189.734375 C 30.179688 189.734375 35.972656 177.402344 43.449219 170.367188 C 43.808594 170.007812 44.195312 169.566406 44.609375 169.097656 C 45.023438 168.570312 45.546875 168.128906 46.015625 167.660156 C 46.234375 167.441406 46.457031 167.191406 46.648438 166.945312 C 46.703125 166.890625 46.898438 166.640625 46.871094 166.640625 C 46.59375 166.945312 46.179688 166.917969 45.847656 167.082031 C 45.40625 167.277344 44.9375 167.578125 44.523438 167.828125 C 42.8125 168.847656 40.71875 170.007812 39.339844 171.523438 Z M 39.339844 171.523438 " fill-opacity="1" fill-rule="evenodd"/><path fill="#ffd96d" d="M 232.410156 40.75 C 232.410156 40.75 225.816406 28.886719 218.230469 28.113281 C 210.640625 27.339844 199.855469 31.699219 192.792969 31.699219 C 185.726562 31.699219 181.589844 29.21875 181.589844 29.21875 C 181.589844 29.21875 188.101562 38.40625 191.300781 40.226562 C 194.53125 42.046875 202.253906 41.46875 209.152344 40.722656 C 209.152344 40.722656 204.128906 38.570312 199.136719 38.789062 C 194.144531 39.011719 191.578125 36.5 191.578125 36.5 C 191.578125 36.5 197.949219 36.308594 204.40625 34.101562 C 217.261719 29.6875 226.230469 34.734375 232.410156 40.75 Z M 232.410156 40.75 " fill-opacity="1" fill-rule="evenodd"/><path fill="#571500" d="M 193.675781 374.609375 C 193.675781 374.609375 194.003906 343.875 176.511719 322.878906 C 176.511719 322.878906 193.703125 340.757812 195.632812 358.003906 C 195.632812 358.003906 192.351562 327.128906 179.960938 309.71875 C 167.574219 292.3125 165.144531 292.3125 154.195312 271.5625 C 161.199219 284.945312 190.140625 309.804688 198.886719 320.976562 C 215.359375 342 222.089844 365.589844 222.089844 365.589844 C 222.089844 365.589844 218.394531 337.613281 201.09375 314.960938 C 201.09375 314.960938 212.738281 323.820312 222.476562 348.457031 C 222.476562 348.457031 222.144531 329.335938 201.480469 308.394531 C 180.816406 287.484375 171.382812 283.207031 164.457031 267.371094 C 164.457031 267.371094 169.53125 277.136719 201.371094 296.890625 C 233.210938 316.617188 236.023438 330.632812 236.023438 330.632812 C 236.023438 330.632812 225.402344 299.179688 197.011719 283.484375 C 168.648438 267.757812 147.1875 247.589844 148.675781 211.28125 C 148.675781 211.28125 141.886719 229.378906 151.324219 257.492188 C 151.324219 257.492188 135.238281 237.132812 132.757812 203.253906 C 131.292969 183.304688 141.585938 166.394531 141.585938 166.394531 C 141.585938 166.394531 128.3125 174.890625 122.21875 184.296875 C 103.511719 213.101562 117.445312 253.246094 117.445312 253.246094 C 117.445312 253.246094 95.015625 213.265625 121.804688 172.1875 C 139.046875 145.726562 155.988281 125.230469 169.257812 118.386719 C 178.25 113.75 199.359375 109.640625 213.261719 109.917969 C 213.261719 109.917969 194.972656 114.632812 176.871094 124.789062 C 171.214844 127.960938 165.117188 130.941406 165.257812 159.714844 C 165.367188 181.539062 165.808594 194.367188 198.859375 215.804688 C 198.859375 215.804688 181.257812 201.625 175.355469 184.90625 C 175.355469 184.90625 179.492188 192.050781 189.175781 200.4375 C 200.488281 210.261719 206.613281 213.625 216.269531 223.363281 C 231.554688 238.816406 228.65625 246.292969 233.539062 253.714844 C 233.539062 253.714844 235.664062 241.765625 235.636719 243.808594 C 235.5 252.914062 237.292969 254.652344 236.410156 265.382812 C 235.886719 271.730469 243.363281 277.273438 246.230469 280.972656 C 246.230469 280.972656 236.519531 275.59375 232.273438 265.191406 C 227.140625 252.582031 222.671875 233.40625 210.476562 230.042969 C 210.476562 230.042969 200.046875 245.078125 211.964844 267.316406 C 223.855469 289.578125 282.179688 315.570312 288.773438 350.441406 C 288.746094 350.46875 246.066406 378.613281 193.675781 374.609375 Z M 193.675781 374.609375 " fill-opacity="1" fill-rule="evenodd"/><path fill="#571500" d="M 256.359375 91.789062 C 257.597656 93.171875 245.375 85.527344 245.375 85.527344 C 245.375 85.527344 220.601562 38.101562 257.183594 0 C 257.183594 0 254.34375 10.289062 266.015625 23.753906 C 277.683594 37.21875 285.4375 42.957031 288.417969 79.816406 C 289.214844 89.804688 289.300781 100.535156 292.777344 108.648438 C 299.398438 123.988281 301.136719 129.117188 300.695312 138.554688 C 300.695312 138.554688 297.328125 128.980469 293.6875 122.414062 C 284.195312 105.253906 269.765625 100.207031 269.765625 100.207031 C 273.847656 99.238281 281.90625 100.316406 284.828125 103.625 C 284.828125 103.625 279.589844 99.046875 280.332031 92.34375 C 285.023438 48.832031 262.757812 32.085938 262.757812 32.085938 C 262.757812 32.085938 274.261719 44.558594 274.84375 68.753906 C 274.84375 68.753906 272.332031 58.378906 265.792969 52.945312 C 265.792969 52.945312 271.226562 60.613281 273.214844 76.0625 C 274.898438 89.140625 266.015625 95.433594 258.234375 83.871094 C 256.136719 80.78125 253.820312 75.042969 253.296875 68.726562 C 252.027344 72.175781 252.6875 76.835938 254.371094 81.691406 C 245.679688 66.933594 244.273438 52.449219 244.492188 38.597656 C 244.523438 38.570312 239.609375 72.890625 256.359375 91.789062 Z M 256.359375 91.789062 " fill-opacity="1" fill-rule="evenodd"/><path fill="#571500" d="M 131.101562 285.964844 C 131.101562 285.964844 166.03125 320.371094 169.285156 371.796875 C 169.285156 371.796875 155.738281 369.921875 136.121094 361.644531 C 118.824219 354.332031 96.585938 341.449219 74.128906 318.824219 C 73.136719 319.902344 58.980469 286.988281 61.273438 245.160156 C 61.824219 235.230469 64.304688 225.984375 64.304688 225.984375 C 59.589844 230.316406 56.527344 240.882812 54.402344 248.691406 C 53.464844 238.648438 56.636719 221.488281 66.375 207.613281 C 74.433594 196.078125 76.554688 181.980469 81.191406 172.460938 C 81.191406 172.460938 69.136719 193.707031 59.976562 202.5625 C 68.941406 187.996094 69.878906 165.867188 92.449219 151.632812 C 96.035156 149.371094 103.234375 142.417969 103.816406 139.492188 C 94.242188 142.03125 79.535156 148.046875 71.617188 157.039062 C 71.617188 157.039062 78.238281 136.84375 115.953125 122.082031 C 123.515625 119.132812 133.722656 112.566406 139.019531 107.269531 C 139.019531 107.269531 132.867188 106.550781 124.535156 107.710938 C 114.769531 109.0625 104.503906 114.109375 97.414062 116.8125 C 97.414062 116.8125 112.917969 98.796875 147.378906 94.4375 C 172.183594 91.292969 181.011719 81.582031 181.011719 81.582031 C 169.285156 77.554688 160.179688 78.933594 144.675781 79.292969 C 144.675781 79.292969 171.742188 65.496094 208.984375 77.113281 C 208.984375 77.113281 197.8125 64.753906 176.015625 56.917969 C 176.015625 56.917969 199.328125 56.890625 217.980469 68.285156 C 232.382812 77.058594 252.660156 75.84375 266.015625 105.695312 C 266.261719 106.21875 265.683594 105.199219 266.015625 105.695312 C 266.015625 105.695312 256.191406 95.183594 252.300781 93.640625 C 247.554688 91.761719 243.667969 88.175781 235.472656 86.574219 C 244.050781 90.136719 260.800781 100.507812 269.820312 113.367188 C 269.820312 113.367188 241.871094 90.4375 220.242188 89.609375 C 198.613281 88.78125 187.464844 89.167969 187.464844 89.167969 C 187.464844 89.167969 213.730469 92.785156 225.207031 99.324219 C 225.207031 99.324219 187.050781 86.605469 155.105469 107.074219 C 118.933594 130.195312 62.15625 178.476562 93.027344 282.65625 C 93.027344 282.65625 78.679688 256.722656 74.929688 230.648438 C 74.929688 230.648438 62.625 260.695312 87.371094 327.542969 C 87.371094 327.542969 85.9375 294.738281 81.191406 278.957031 C 81.191406 278.957031 95.648438 303.59375 100.835938 323.183594 C 106.023438 342.773438 117.886719 346.578125 117.886719 346.578125 C 117.886719 346.578125 123.292969 326.523438 106.628906 287.566406 C 89.9375 248.609375 97.46875 216.964844 97.46875 216.964844 C 97.46875 216.964844 94.351562 256.527344 123.292969 289.9375 C 152.207031 323.347656 155.242188 337.777344 155.242188 337.777344 C 155.242188 337.777344 151.628906 312.644531 131.101562 285.964844 Z M 131.101562 285.964844 " fill-opacity="1" fill-rule="evenodd"/><path fill="#571500" d="M 70.210938 278.984375 L 63.480469 231.253906 C 60.5 251.835938 61.246094 270.765625 63.507812 284.171875 C 63.507812 284.171875 45.160156 268.390625 46.207031 225.792969 C 46.566406 211.613281 51.644531 197.734375 59.285156 182.863281 C 59.285156 182.863281 40.027344 204.191406 37.65625 226.59375 C 35.53125 246.652344 26.066406 249.628906 26.066406 249.628906 C 26.066406 249.628906 31.613281 239.835938 32.136719 218.261719 C 32.632812 196.6875 50.84375 178.917969 50.84375 178.917969 C 50.84375 178.917969 43.585938 179.554688 32.21875 189.980469 C 29.324219 192.65625 26.179688 195.941406 22.785156 200.023438 C 22.785156 200.023438 29.929688 171.992188 64.277344 158.144531 C 64.277344 158.144531 45.296875 159.082031 33.324219 164.683594 C 33.324219 164.683594 39.089844 151.023438 64.058594 144.128906 C 89 137.257812 105.304688 118.71875 105.304688 118.71875 C 105.304688 118.71875 91.039062 127.105469 69.933594 124.730469 C 48.828125 122.386719 34.011719 130.746094 34.011719 130.746094 C 34.011719 130.746094 44.828125 109.917969 84.886719 104.207031 C 124.976562 98.496094 138.523438 86.519531 138.523438 86.519531 C 138.523438 86.519531 112.644531 84.09375 90.792969 70.4375 C 90.792969 70.4375 107.953125 71.871094 126.300781 70.851562 C 133.527344 70.464844 140.976562 69.691406 147.597656 68.285156 C 171.023438 63.375 189.316406 69.800781 189.316406 69.800781 C 189.316406 69.800781 167.765625 55.453125 135.292969 59.289062 C 135.292969 59.289062 150.277344 49.992188 165.144531 49.027344 C 165.144531 49.027344 151.296875 45.769531 134.355469 47.675781 C 117.390625 49.578125 171.683594 28.859375 190.253906 44.667969 C 206.199219 58.242188 212.960938 60.835938 226.007812 58.601562 C 210.808594 56.089844 205.234375 52.089844 200.242188 46.019531 C 200.183594 45.964844 205.953125 45.714844 210.0625 46.460938 C 218.421875 47.976562 219.609375 48.667969 223.800781 53.054688 C 219.167969 37.523438 203.773438 40.914062 199.910156 40.914062 C 192.570312 40.914062 186.667969 34.046875 186.667969 34.046875 C 186.667969 34.046875 190.113281 35.5625 196.625 33.550781 C 205.953125 30.652344 216.683594 28.691406 224.683594 35.894531 C 234.421875 44.667969 231.25 57.992188 235.609375 69.140625 C 236.742188 72.035156 240.464844 80.148438 245.515625 85.140625 C 245.570312 85.195312 240.6875 68.753906 240.660156 60.835938 C 240.632812 52.089844 239.609375 43.976562 237.429688 35.5625 C 236.246094 30.957031 232.273438 26.070312 228.078125 23.835938 C 218.089844 18.511719 208.683594 22.183594 205.039062 22.953125 C 201.261719 23.753906 197.648438 25.601562 193.730469 25.796875 C 189.921875 25.988281 185.894531 25.660156 182.75 23.394531 C 181.894531 22.789062 180.734375 21.160156 180.429688 20.140625 C 180.265625 19.5625 180.042969 18.511719 180.15625 18.152344 C 180.183594 18.042969 175.464844 21.960938 175.796875 27.339844 C 175.878906 28.636719 176.625 30.984375 177.5625 32.28125 C 177.921875 32.777344 178.636719 33.578125 178.636719 33.578125 C 178.636719 33.578125 176.789062 33.136719 176.320312 33.078125 C 172.347656 32.722656 169.148438 33.023438 164.816406 33.492188 C 127.707031 37.328125 122.546875 48.390625 102.519531 37.742188 C 102.519531 37.742188 108.367188 52.28125 127.707031 54.269531 C 127.707031 54.269531 89.273438 69.996094 68.25 58.160156 C 68.25 58.160156 83.371094 79.125 114.628906 88.066406 C 114.628906 88.066406 100.007812 93.445312 72.445312 96.617188 C 44.882812 99.792969 28.910156 124.097656 21.292969 146.75 C 21.292969 146.75 25.40625 134.582031 56.96875 133.5625 C 58.402344 133.507812 69.246094 133.0625 69.246094 133.0625 C 62.84375 136.375 49.324219 130.746094 28.300781 158.03125 C 17.929688 171.359375 5.042969 171.800781 5.042969 171.800781 C 5.042969 171.800781 16.992188 176.792969 27.859375 172.351562 C 29.40625 171.71875 31.558594 170.722656 32.773438 170.53125 C 32.773438 170.53125 17.652344 178.117188 15.832031 198.121094 C 14.175781 215.804688 6.421875 220.660156 6.421875 220.660156 C 6.421875 220.660156 16.023438 215.777344 23.914062 207.996094 C 23.914062 207.996094 17.679688 220.910156 18.230469 232.773438 C 18.785156 244.636719 17.734375 258.320312 11.664062 262.292969 C 11.664062 262.292969 26.480469 263.644531 33.214844 251.480469 C 29.324219 266.128906 20.769531 284.667969 40.964844 306.546875 C 40.964844 306.546875 47.3125 291.289062 74.265625 319.210938 Z M 70.210938 278.984375 " fill-opacity="1" fill-rule="evenodd"/><path fill="#571500" d="M 298.15625 124.953125 C 298.15625 124.953125 301.6875 114.800781 307.316406 132.898438 C 311.621094 146.777344 307.535156 161.398438 325.496094 161.207031 C 337.277344 161.066406 342.300781 150.582031 342.300781 150.582031 C 342.300781 150.582031 331.675781 155.714844 327.757812 147.191406 C 323.839844 138.664062 332.285156 132.070312 327.953125 124.648438 C 327.953125 124.648438 336.644531 129.78125 336.367188 142.308594 C 336.367188 142.308594 343.238281 138.25 338.65625 122.996094 C 338.65625 122.996094 348.921875 136.734375 360.8125 129.476562 C 360.8125 129.476562 346.160156 122.691406 346.464844 103.074219 C 346.601562 94.054688 352.257812 111.128906 352.257812 111.128906 C 352.257812 111.128906 355.761719 97.640625 345.195312 83.597656 C 340.617188 77.5 330.820312 76.449219 330.820312 76.449219 C 330.820312 76.449219 343.789062 53.6875 324.558594 31.398438 C 324.558594 31.398438 325.359375 58.847656 312.117188 66.628906 C 312.117188 66.628906 312.0625 57.359375 305.992188 50.101562 C 290.898438 32.140625 300.472656 19.726562 300.472656 19.726562 C 300.472656 19.726562 283.476562 34.265625 286.238281 52.804688 L 285.960938 74.214844 L 288.222656 88.175781 C 288.222656 88.175781 293.6875 77.914062 292.003906 66.492188 C 290.320312 55.070312 291.617188 45.355469 292.832031 42.292969 C 292.832031 42.292969 295.949219 47.289062 301.90625 55.757812 C 307.867188 64.199219 308.859375 66.765625 305.878906 79.429688 C 316.640625 71.761719 325.636719 64.585938 327.402344 52.640625 C 327.402344 52.640625 332.585938 69.277344 318.214844 81.859375 C 318.214844 81.859375 336.089844 81.859375 338.601562 93.941406 C 341.140625 106.027344 339.292969 115.515625 346.078125 122.523438 C 331.84375 119.019531 336.035156 97.558594 323.511719 92.839844 C 330.847656 99.378906 325.164062 109.421875 332.089844 121.78125 C 332.089844 121.78125 327.125 113.972656 316.226562 115.296875 C 316.226562 115.296875 327.539062 121.476562 322.214844 136.484375 C 318.378906 147.300781 324.421875 153.34375 328.585938 155.660156 C 328.585938 155.660156 311.921875 160.515625 315.921875 137.894531 C 319.261719 119.078125 305.328125 117.667969 305.328125 117.667969 C 305.328125 117.667969 305.496094 105.117188 322.324219 107.929688 C 322.324219 107.929688 313.769531 100.648438 304.996094 106.523438 C 304.996094 106.523438 305.21875 97.722656 318.847656 98.246094 C 312.667969 93.832031 299.785156 93.695312 298.402344 105.804688 C 298.402344 105.804688 292.832031 102.164062 299.535156 82.464844 C 301.328125 77.222656 298.761719 67.980469 298.761719 67.980469 C 298.761719 67.980469 299.175781 78.851562 294.761719 85.554688 C 290.347656 92.257812 286.734375 103.738281 293.492188 115.792969 C 300.253906 127.90625 298.15625 124.953125 298.15625 124.953125 Z M 298.15625 124.953125 " fill-opacity="1" fill-rule="evenodd"/><path fill="#571500" d="M 33.683594 131.683594 C 33.683594 131.683594 44.964844 111.296875 82.019531 118.082031 C 96.945312 120.816406 106.933594 116.371094 106.933594 116.371094 C 106.933594 116.371094 104.699219 121.394531 96.308594 126.25 C 87.949219 131.105469 61.65625 128.015625 53.242188 129.558594 C 44.828125 131.105469 33.683594 131.683594 33.683594 131.683594 Z M 33.683594 131.683594 " fill-opacity="0.502" fill-rule="evenodd"/><path fill="#571500" d="M 55.203125 189.125 C 55.203125 189.125 44.746094 231.808594 55.617188 261.355469 C 55.617188 261.355469 56.914062 248.886719 58.707031 242.675781 C 58.707031 242.675781 55.78125 245.519531 54.761719 247.726562 C 54.761719 247.726562 53.988281 225.214844 70.101562 196.1875 C 70.101562 196.1875 66.320312 199.664062 60.25 202.398438 C 60.25 202.398438 77.769531 171.082031 79.175781 164.65625 C 80.585938 158.226562 85.910156 152.847656 91.621094 148.402344 C 91.621094 148.402344 77.355469 152.542969 72.253906 156.902344 C 72.253906 156.902344 87.59375 136.761719 98.902344 130.855469 C 110.214844 124.953125 123.734375 114.664062 124.921875 112.675781 C 124.921875 112.675781 112.339844 113.53125 102.847656 120.289062 C 102.847656 120.289062 95.152344 122.027344 87.839844 119.492188 C 87.839844 119.492188 93.660156 121.394531 114.355469 106.386719 C 122.023438 100.8125 144.621094 97.335938 145.144531 96.371094 C 145.144531 96.371094 158.964844 91.734375 167.105469 84.394531 C 167.105469 84.394531 155.460938 78.769531 145.035156 79.292969 C 145.035156 79.292969 175.90625 68.257812 189.289062 69.773438 C 189.289062 69.773438 184.375 57.746094 173.09375 57.304688 C 173.09375 57.304688 183.273438 55.207031 196.875 60.972656 C 210.476562 66.710938 221.429688 66.519531 227.5 68.671875 C 227.5 68.671875 232.574219 64.863281 226.78125 61.304688 C 221.015625 57.746094 213.34375 60.035156 205.730469 53.496094 C 198.144531 46.957031 202.890625 49.300781 202.890625 49.300781 C 202.890625 49.300781 207.800781 48.335938 217.152344 52.0625 C 226.503906 55.785156 229.953125 60.199219 229.953125 60.199219 C 229.953125 60.199219 230.5625 40.085938 223 33.191406 C 223 33.191406 235.71875 44.613281 238.949219 60.171875 C 242.175781 75.734375 247.03125 85.167969 247.03125 85.167969 C 247.03125 85.167969 231.886719 79.238281 198.859375 84.949219 C 165.808594 90.632812 129.253906 115.902344 115.539062 129.699219 C 101.828125 143.492188 77.355469 196.410156 78.292969 222.59375 L 65.90625 235.144531 C 65.90625 235.144531 69.078125 289.441406 72.03125 300.175781 C 75.011719 310.878906 46.84375 289.609375 46.84375 289.609375 L 38.757812 251.808594 L 39.863281 236.167969 C 39.863281 236.167969 32.6875 252.167969 25.019531 254.871094 C 25.019531 254.871094 22.949219 242.898438 23.722656 238.816406 C 24.496094 234.730469 27.472656 210.289062 27.472656 210.289062 C 35.695312 190.476562 47.421875 179.9375 60.691406 173.59375 C 60.691406 173.59375 49.65625 183 42.980469 195.25 C 36.21875 207.640625 33.433594 222.011719 33.875 231.089844 C 33.875 231.089844 35.117188 212.328125 42.179688 203.96875 C 49.242188 195.472656 55.203125 189.125 55.203125 189.125 Z M 55.203125 189.125 " fill-opacity="0.502" fill-rule="evenodd"/><path fill="#571500" d="M 270.535156 297.9375 C 275.359375 300.109375 268.15625 304.492188 261.640625 301.199219 C 255.128906 297.90625 257.347656 291.894531 252.015625 285.871094 C 246.683594 279.847656 234.839844 274.332031 235.445312 267.917969 C 236.28125 259.078125 231.160156 249.636719 231.160156 249.636719 L 229.539062 257.445312 C 229.539062 257.445312 231.152344 261.007812 230.953125 264.097656 C 230.765625 266.832031 230.132812 269.671875 231.101562 272.554688 C 233.15625 278.691406 246.671875 284.765625 250.371094 290.335938 C 254.066406 295.90625 253.175781 302.59375 259.300781 305.492188 C 265.425781 308.386719 273.433594 307.679688 275.992188 300.914062 C 278.863281 302.238281 282.625 299.246094 283.53125 296.511719 C 286.304688 302.109375 290.644531 305.222656 296.222656 306.273438 C 300.152344 306.996094 301.886719 302.207031 306.128906 301.6875 C 309.101562 301.316406 314.097656 302.585938 316.050781 300.0625 C 318.980469 296.269531 319.542969 294.800781 320.035156 288.984375 C 320.082031 288.554688 326.425781 282.367188 331.328125 278.273438 C 335.140625 275.082031 339.507812 265.90625 339.796875 262.238281 C 340.769531 249.949219 327.644531 250.492188 322.378906 238.328125 C 322.378906 238.328125 310.46875 208.960938 311.441406 186.316406 C 312.214844 186.242188 318.628906 184.273438 318.222656 172.929688 C 317.980469 165.867188 318.566406 157.949219 318.566406 157.949219 C 318.566406 157.949219 312.816406 157.542969 310.511719 143.21875 C 310.476562 143.058594 310.480469 143.011719 310.480469 143.011719 C 310.472656 143.085938 310.492188 143.140625 310.511719 143.21875 C 310.933594 145.941406 315.21875 173.351562 311.773438 177.933594 C 310.023438 180.246094 309.957031 175.828125 309.503906 171.925781 C 308.539062 163.945312 306.273438 163.90625 305.675781 161.574219 C 305.675781 161.574219 306.660156 168.898438 307 178.191406 C 307.246094 184.769531 306.59375 192.351562 307.523438 198.953125 C 309.789062 214.902344 311.261719 222.890625 315.820312 233.292969 C 315.820312 233.292969 309.628906 229.140625 305.734375 216.769531 C 305.734375 216.769531 306.160156 233.875 316.484375 243.847656 C 325.398438 252.445312 333.679688 255.695312 333.308594 262.796875 C 333.066406 267.234375 326.699219 273.597656 321.292969 280.292969 C 319.882812 282.03125 313.910156 285.628906 303.710938 281.003906 C 296.402344 277.703125 292.4375 262.207031 292.4375 262.207031 C 292.4375 262.207031 291.140625 286.425781 314.492188 289.519531 C 314.492188 289.519531 314.070312 293.503906 312.941406 295.730469 C 311.136719 299.261719 303.480469 295.898438 298.230469 291.261719 C 298.230469 291.261719 303.691406 298.953125 300.167969 300.164062 C 282.320312 306.25 277.558594 267.4375 277.648438 250.054688 C 277.734375 232.671875 274.027344 223.863281 274.027344 223.863281 C 274.027344 223.863281 253.785156 208.984375 242.417969 204.308594 C 242.417969 204.308594 240.949219 210.195312 239.167969 217.097656 C 238.171875 220.945312 234.628906 224.265625 237.15625 229.074219 C 244.226562 242.527344 246.835938 245.585938 250.785156 263.421875 C 254.710938 281.257812 270.855469 281.824219 279.25 291.71875 C 279.25 291.71875 279.359375 299.101562 272.5 294.953125 C 267.320312 291.804688 261.640625 289.082031 257.878906 285.570312 L 270.550781 297.933594 Z M 276.628906 282.160156 C 274.976562 276.578125 273.167969 266.667969 273.257812 258.851562 C 273.324219 251.535156 271.675781 233.867188 269.671875 228.222656 C 267.695312 222.582031 251.789062 215.179688 251.789062 215.179688 L 260.023438 226.304688 L 257.78125 233.234375 L 263.1875 242.171875 L 261.054688 250.71875 L 265.191406 255.496094 L 263.054688 262.410156 L 269.089844 269.476562 L 260.339844 262.964844 L 261.195312 255.839844 L 256.316406 252.285156 L 259 242.140625 L 252.09375 234.109375 L 254.042969 226.335938 L 246.710938 216.582031 L 241.625 227.441406 C 248.015625 234.777344 251.914062 257.171875 255.496094 264.058594 C 259.078125 270.941406 258.46875 271.15625 274 280.40625 C 274.929688 281.015625 275.8125 281.59375 276.621094 282.164062 Z M 276.628906 282.160156 " fill-opacity="1" fill-rule="evenodd"/><path fill="#571500" d="M 304.253906 236.128906 C 307.816406 241.507812 310.820312 244.734375 315.003906 248.085938 C 318.25 250.671875 324.300781 256.1875 326.273438 260.195312 C 328.941406 265.632812 318.65625 276.449219 312.835938 275.960938 C 312.835938 275.960938 316.269531 274.128906 318.871094 270.300781 C 320.808594 267.46875 323.230469 264.132812 322.382812 261.285156 C 321.238281 257.417969 312.441406 252.53125 312.441406 252.53125 C 312.441406 252.53125 316.089844 255.414062 318.1875 258.980469 C 319.875 261.863281 317.957031 266.683594 314.230469 270.75 C 312.878906 272.210938 312.132812 273.460938 310.015625 273.441406 C 308.742188 273.433594 306.359375 273.027344 303.730469 267.75 C 301.1875 262.632812 301.242188 255.625 301.242188 255.625 C 301.632812 258.449219 305.28125 265.898438 304.980469 263.699219 C 304.476562 260.023438 304.59375 255.316406 307.429688 250.976562 C 309.515625 247.65625 306.191406 240.746094 304.257812 236.128906 Z M 304.253906 236.128906 " fill-opacity="1" fill-rule="evenodd"/><path fill="#571500" d="M 302.15625 175.441406 C 302.15625 175.441406 298.707031 185.871094 292.335938 174.285156 C 285.960938 162.695312 291.394531 138.304688 281.410156 126.582031 C 278.152344 122.746094 269.519531 117.503906 260.6875 114.855469 C 250.425781 111.765625 241.347656 111.710938 241.347656 111.710938 C 241.347656 111.710938 269.351562 116.839844 274.898438 128.761719 C 276.496094 132.210938 271.503906 135.464844 271.503906 135.464844 C 271.503906 135.464844 266.953125 130.140625 253.238281 128.675781 C 253.238281 128.675781 265.046875 134.390625 267.78125 141.203125 C 267.78125 141.203125 262.511719 148.046875 262.261719 154.777344 C 262.261719 154.777344 262.925781 161.261719 257.019531 145.425781 C 257.019531 145.425781 257.433594 163.882812 261.65625 168.019531 C 272.140625 178.285156 277.410156 179.71875 277.410156 179.71875 C 277.410156 179.71875 273.132812 180.90625 266.59375 178.78125 C 258.839844 176.269531 248.355469 170.035156 244.328125 164.847656 C 244.328125 164.847656 269.132812 194.3125 289.160156 182.503906 C 289.160156 182.503906 291.835938 186.285156 296.058594 185.953125 C 299.425781 185.707031 302.847656 183.441406 302.15625 175.441406 Z M 302.15625 175.441406 " fill-opacity="1" fill-rule="evenodd"/><path fill="#ffd96d" d="M 284.179688 173.429688 C 277.96875 173.011719 270.945312 165.90625 270.945312 165.90625 C 270.515625 156.640625 275.308594 151.476562 279.730469 147.546875 C 279.730469 147.546875 273.941406 162.285156 284.179688 173.429688 Z M 284.179688 173.429688 " fill-opacity="1" fill-rule="evenodd"/><path fill="#571500" d="M 280.773438 296.117188 C 278.703125 297.554688 279.617188 296.917969 273.492188 300.753906 C 265.738281 305.609375 261.019531 305.140625 257.820312 301.582031 C 254.730469 298.132812 253.183594 291.179688 249.019531 286.132812 C 244.632812 280.804688 238.039062 278.296875 235.996094 270.046875 C 230.78125 249.023438 219.195312 233.078125 211.992188 226.898438 C 206.667969 222.316406 201.8125 246.125 201.316406 248.332031 C 197.921875 263.011719 228.300781 291.898438 252.769531 312.203125 C 192.847656 290.1875 69.660156 120.785156 213.234375 109.972656 C 188.707031 128.789062 163.519531 133.203125 172.511719 172.738281 C 172.84375 172.105469 173.175781 171.441406 173.507812 170.78125 C 175.4375 167.027344 177.339844 163.273438 179.273438 159.523438 C 166.058594 198.921875 232.382812 199.363281 243.085938 235.53125 C 246.425781 242.347656 248.9375 249.519531 251.28125 256.722656 C 252.328125 260.003906 252.964844 263.371094 255.089844 266.101562 C 261.683594 276.089844 275.863281 279.234375 281.078125 289.828125 C 281.078125 292.089844 280.96875 294.1875 280.773438 296.117188 Z M 280.773438 296.117188 " fill-opacity="0.502" fill-rule="nonzero"/><path fill="#571500" d="M 305.382812 274.238281 C 303.5625 273.386719 302.433594 271.535156 301.660156 269.6875 C 299.480469 264.472656 299.453125 258.375 301.578125 253.132812 C 302.101562 254.015625 302.625 254.898438 303.148438 255.78125 C 305.851562 249.988281 306.238281 243.148438 304.171875 237.105469 C 305.054688 238.566406 305.9375 240 306.820312 241.464844 C 308.117188 243.617188 309.46875 245.796875 311.289062 247.535156 C 314.128906 250.183594 317.964844 251.617188 320.667969 254.402344 C 323.867188 257.742188 324.972656 262.929688 323.398438 267.289062 C 322.488281 269.796875 320.722656 271.921875 318.515625 273.414062 C 317.578125 274.046875 316.0625 275.039062 314.875 275.066406 C 313.027344 275.09375 313.578125 274.101562 314.101562 272.804688 C 311.371094 273.910156 308.363281 275.648438 305.382812 274.238281 Z M 305.382812 274.238281 " fill-opacity="0.502" fill-rule="evenodd"/><path fill="#571500" d="M 277.628906 250.015625 C 277.132812 257.933594 284.800781 302.328125 298.210938 291.234375 C 303.230469 294.464844 304.777344 300.503906 300.226562 302.1875 C 297.960938 303.238281 295.257812 302.4375 293.050781 301.277344 C 276.910156 292.53125 275.257812 271.785156 275.449219 255.257812 C 275.449219 253.410156 276.96875 251.753906 277.628906 250.015625 Z M 277.628906 250.015625 " fill-opacity="0.502" fill-rule="evenodd"/><path fill="#571500" d="M 155.902344 350.496094 C 155.105469 356.015625 152.59375 361.589844 147.847656 364.511719 C 147.1875 364.925781 146.523438 365.257812 145.890625 365.507812 C 145.558594 365.394531 145.199219 365.257812 144.867188 365.148438 C 131.625 360.429688 119.15625 354.113281 107.648438 346.414062 C 101.550781 342.25 95.648438 337.777344 90.101562 332.921875 C 85.742188 329.117188 81.605469 325.117188 77.6875 320.839844 C 68.417969 310.851562 69.714844 301.003906 68.335938 289.082031 C 66.761719 279.980469 66.074219 270.820312 66.210938 261.6875 C 66.625 233.050781 75.011719 204.632812 88.613281 179.359375 C 103.289062 154.914062 126.355469 109.917969 166.941406 100.976562 C 157.667969 108.34375 138.632812 120.457031 129.390625 127.824219 C 134.660156 125.339844 137.390625 124.042969 142.660156 121.558594 C 122.105469 139.851562 106.378906 163.523438 97.496094 189.566406 C 98.546875 187.914062 99.621094 186.257812 100.667969 184.601562 C 103.703125 179.828125 106.765625 175.027344 109.828125 170.253906 C 96.972656 205.875 107.015625 243.726562 122.492188 276.75 C 122.4375 272.0625 122.355469 267.371094 122.300781 262.679688 C 137.472656 289.414062 155.960938 318.992188 155.902344 350.496094 Z M 155.902344 350.496094 " fill-opacity="0.502" fill-rule="evenodd"/><path fill="#571500" d="M 115.679688 249.546875 C 116.589844 230.566406 117.996094 224.21875 121.195312 214.039062 C 126.21875 236.9375 139.488281 257.933594 158.027344 272.28125 C 157.035156 268.058594 156.070312 263.839844 155.078125 259.617188 C 169.726562 273.082031 185.976562 284.640625 200.929688 297.773438 C 215.882812 310.90625 229.707031 325.914062 237.789062 344.097656 C 246.699219 327.652344 241.679688 306.714844 231.472656 291.042969 C 221.292969 275.371094 206.613281 263.203125 194.226562 249.1875 C 173.175781 225.40625 158.636719 195.96875 152.59375 164.820312 C 151.929688 161.371094 151.019531 157.425781 147.929688 155.742188 C 145.585938 154.472656 142.578125 155 140.289062 156.378906 C 128.175781 163.742188 120.644531 182.449219 116.421875 195.167969 C 111.152344 211.003906 109.386719 226.757812 115.679688 249.546875 Z M 115.679688 249.546875 " fill-opacity="0.502" fill-rule="evenodd"/><path fill="#571500" d="M 296.140625 67.566406 C 296.308594 65.554688 296.335938 63.539062 296.222656 61.523438 C 303.507812 67.070312 302.957031 82.328125 302.625 90.769531 C 309.992188 90.90625 317.304688 93.226562 323.398438 97.335938 C 318.929688 96.398438 314.046875 97.832031 310.820312 101.03125 C 316.890625 101.75 322.65625 105.003906 326.351562 109.863281 C 320.476562 108.039062 306.292969 109.503906 311.894531 118.523438 C 313.359375 120.566406 315.234375 121.476562 316.199219 123.878906 C 317.46875 127.078125 318.460938 130.167969 318.296875 133.671875 C 317.632812 140.953125 312.945312 152.488281 321.9375 156.238281 C 318.488281 156.625 315.261719 154.03125 313.769531 150.886719 C 310.792969 144.488281 313.578125 136.953125 311.453125 130.332031 C 309.742188 125.007812 305.164062 121.226562 301.164062 117.339844 C 296.03125 112.34375 291.5625 106.6875 287.835938 100.589844 C 283.808594 94.769531 287.230469 92.425781 290.183594 87.375 C 293.546875 81.304688 295.589844 74.492188 296.140625 67.566406 Z M 296.140625 67.566406 " fill-opacity="0.502" fill-rule="evenodd"/><path fill="#571500" d="M 293.601562 276.613281 C 294.707031 280.089844 296.636719 282.902344 299.039062 285.578125 C 299.425781 285.992188 299.699219 286.460938 300.167969 286.765625 C 300.96875 287.261719 302.046875 287.484375 302.929688 287.8125 C 304.914062 288.53125 306.875 289.277344 308.859375 289.992188 C 309.796875 290.351562 310.820312 290.738281 311.371094 291.59375 C 312.089844 292.726562 311.621094 294.351562 310.570312 295.207031 C 309.523438 296.0625 308.03125 296.203125 306.707031 295.925781 C 305.382812 295.648438 304.171875 294.988281 302.984375 294.324219 C 303.425781 296.367188 304.886719 298.160156 306.820312 298.988281 C 308.722656 299.816406 311.039062 299.679688 312.832031 298.601562 C 313.992188 297.910156 314.929688 296.890625 315.507812 295.675781 C 316.503906 293.664062 316.390625 291.179688 315.425781 289.195312 C 314.210938 286.710938 311.675781 286.074219 309.300781 285 C 306.128906 283.566406 302.433594 282.242188 299.839844 279.839844 C 299.507812 279.539062 299.203125 279.207031 298.957031 278.820312 C 295.671875 274.679688 293.382812 266.957031 292.445312 262.210938 C 291.921875 264.113281 292.113281 267.011719 291.976562 267.535156 C 291.867188 270.652344 292.664062 273.714844 293.601562 276.613281 Z M 293.601562 276.613281 " fill-opacity="0.502" fill-rule="evenodd"/></svg>